<svg width="2458" height="1559" viewBox="0 0 2458 1559" fill="none" xmlns="http://www.w3.org/2000/svg">
<path d="M2382.45 0H75.75C34.4657 0 0.998047 33.4676 0.998047 74.7519V1483.56C0.998047 1524.85 34.4657 1558.32 75.75 1558.32H2382.45C2423.74 1558.32 2457.21 1524.85 2457.21 1483.56V74.7519C2457.21 33.4676 2423.74 0 2382.45 0Z" fill="#12161F"/>
<g opacity="0.2">
<path opacity="0.2" d="M1775.05 433.387C1765.52 399.109 1744.29 369.249 1715.05 348.989C1685.8 328.729 1650.38 319.349 1614.94 322.476C1592.6 323.742 1570.65 328.92 1550.1 337.774C1499.51 360.374 1464.22 420.349 1480.56 473.197C1494.3 516.31 1536.19 543.777 1577.74 561.856C1619.29 579.936 1672.14 593.322 1715.08 573.156C1735.34 562.413 1752.09 546.061 1763.31 526.053C1774.53 506.046 1779.76 483.229 1778.35 460.333C1778.12 451.266 1777.01 442.243 1775.05 433.387Z" fill="white"/>
</g>
<g opacity="0.2">
<path opacity="0.2" d="M2376.07 2.12458e-10H81.3579C70.6592 -2.44234e-05 60.0655 2.11002 50.1834 6.2095C40.3012 10.309 31.3246 16.3173 23.7676 23.8905C16.2105 31.4637 10.2215 40.4531 6.14311 50.3439C2.06473 60.2348 -0.0226747 70.8331 0.000185755 81.5317V492.841C144.81 594.017 343.859 611.749 520.482 574.894C729.092 531.26 917.015 424.869 1111.54 337.6C1306.07 250.332 1518.51 181.143 1727.99 215.911C1925.82 249.81 2094.44 372.369 2273.15 464.157C2331.9 494.523 2393.36 519.318 2456.73 538.214V81.5317C2456.73 60.058 2448.26 39.4506 2433.16 24.1852C2418.05 8.91977 2397.54 0.228932 2376.07 2.12458e-10V2.12458e-10Z" fill="white"/>
</g>
</svg>
